<svg fill="none" height="41" viewBox="0 0 57 41" width="57" xmlns="http://www.w3.org/2000/svg"><path d="m41.028.870972-2.1445.022994.05 4.644104c-5.4534 1.58278-12.9307 2.35159-19.8338 2.8085 4.1815 11.47133 11.8375 20.70303 18.8058 30.63463 2.4683-2.3417 6.0892-3.8105 9.9434-4.2903-2.4781-2.1575-4.3645-3.3318-7.0094-8.392 3.7256 4.4183 6.2643 5.7744 9.2481 7.3874.3888-1.56 1.0649-2.9353 2.2304-3.8927 1.0326-.8483 2.3859-1.2694 3.9948-1.2324-5.5846-7.1202-12.113-13.9459-15.2297-22.56945zm-23.5785 1.390968-2.1443.02907s.0298 2.18504.0667 4.40463c.0186 1.10991.0387 2.22828.0583 3.0892.0071.31406.0139.54566.0207.77946-4.0958 9.976-8.23903 19.1808-14.763888 27.8124 4.007298-.1653 7.902118-.1433 11.741588-.0049 2.6524-7.4602 2.7814-16.0667 4.2446-24.0671 1.3602 8.1685 1.2588 16.6135 3.9892 24.5227 5.1185.3672 10.2091.8576 15.4108 1.3017-6.6326-9.4301-14.084-18.4712-18.4808-29.7095-.006-.2123-.012-.4046-.0182-.68349-.0193-.85257-.0396-1.96856-.0581-3.07621-.0369-2.21531-.0666-4.39796-.0666-4.39796z" fill="#fff"/></svg>